<svg xmlns="http://www.w3.org/2000/svg" width="97.773" height="79"><g fill="#fff"><path d="m89.913 53.417.612-3.063c.408-.17.79-.349 1.148-.536a8.811 8.811 0 0 0 1.098-.689l2.96.92 2.042-3.47-2.348-2.044a8.722 8.722 0 0 0 0-2.654l2.348-2.04-2.042-3.472-2.96.918a8.824 8.824 0 0 0-1.098-.689 14.47 14.47 0 0 0-1.148-.535L89.913 33h-4.084l-.612 3.063c-.41.17-.791.348-1.15.535a8.89 8.89 0 0 0-1.096.69l-2.961-.92-2.041 3.472 2.348 2.041a8.721 8.721 0 0 0 0 2.654l-2.348 2.042 2.04 3.47 2.962-.918c.374.272.74.502 1.097.69.358.186.74.365 1.149.535l.612 3.063zm-2.042-6.125c-1.123 0-2.084-.4-2.884-1.2-.8-.8-1.2-1.76-1.2-2.884 0-1.123.4-2.084 1.2-2.883.8-.8 1.76-1.2 2.884-1.2 1.123 0 2.084.4 2.884 1.2.799.8 1.199 1.76 1.199 2.883s-.4 2.085-1.2 2.884c-.8.8-1.76 1.2-2.883 1.2zM71.64 75.875l.918-4.287a9.25 9.25 0 0 0 1.608-.74c.494-.29.978-.622 1.455-.996l4.083 1.327 2.859-4.9-3.267-2.858a16.64 16.64 0 0 0 0-3.675l3.267-2.858-2.86-4.9-4.082 1.327a12.987 12.987 0 0 0-1.455-.996 9.233 9.233 0 0 0-1.608-.74l-.918-4.287h-5.717l-.92 4.287a9.301 9.301 0 0 0-1.607.74c-.493.29-.978.621-1.454.996l-4.084-1.328-2.858 4.9 3.267 2.86a16.64 16.64 0 0 0 0 3.674L55 66.28l2.858 4.9 4.084-1.327c.476.374.96.706 1.454.995.494.29 1.03.536 1.608.741l.919 4.287zm-2.86-8.167c-1.7 0-3.146-.595-4.337-1.786-1.191-1.19-1.787-2.637-1.787-4.339 0-1.7.596-3.147 1.787-4.338 1.19-1.19 2.637-1.787 4.338-1.787 1.702 0 3.148.596 4.339 1.787 1.19 1.19 1.786 2.637 1.786 4.338 0 1.702-.595 3.148-1.786 4.34-1.191 1.19-2.637 1.785-4.34 1.785z"/><path d="M61.625 1.508c.438-.02.886.03 1.304.136.176.05.36.11.536.177.136.06.282.117.419.196.194.107.389.225.564.362.146.117.302.255.438.392.283.274.526.587.72.95 4.919 8.797 8.81 19.5 9.333 30.42l-3.882 6.6a.35.35 0 0 0 .073.44.349.349 0 0 1-.23.611h-8.614a1 1 0 0 0-.978.79l-.774 3.611a.76.76 0 0 1-.976.564l-3.45-1.12a1 1 0 0 0-1.173.446l-6.557 11.241a1 1 0 0 0 .205 1.257l2.572 2.25a1.001 1.001 0 0 1 0 1.505l-2.572 2.25a1 1 0 0 0-.205 1.256l5.312 9.107c-.186.106-.366.21-.545.3-.438.245-.857.47-1.285.676-.418.225-.857.421-1.285.617-.224.088-.438.196-.662.284a5.671 5.671 0 0 1-.662.275 30.326 30.326 0 0 1-5.316 1.605c-.467.088-.924.167-1.391.245a4.072 4.072 0 0 1-1.325-.01 4.656 4.656 0 0 1-.34-.078c-.107-.029-.224-.059-.331-.108-.107-.03-.225-.078-.331-.117a2.07 2.07 0 0 1-.448-.245.564.564 0 0 1-.166-.088 2.154 2.154 0 0 1-.39-.275 5.393 5.393 0 0 1-.252-.244c-.117-.088-.224-.215-.331-.333-.107-.117-.195-.255-.283-.373a2.984 2.984 0 0 1-.34-.626 3.48 3.48 0 0 1-.253-.695 90.387 90.387 0 0 1-.584-2.36 39.352 39.352 0 0 1-.4-1.86c-.087-.45-.175-.902-.272-1.372-.175-.96-.332-1.94-.478-2.919a2.03 2.03 0 0 1-.057-.343 1.37 1.37 0 0 1-.03-.284 12.686 12.686 0 0 1-.136-1.037c-.03-.088-.03-.196-.05-.284a71.6 71.6 0 0 1-.164-1.46 7.345 7.345 0 0 1-.06-.626c-.048-.529-.106-1.049-.136-1.577 0-.118-.018-.226-.018-.333-.01-.137-.03-.274-.03-.402v-.02a54.033 54.033 0 0 1-.107-2.163 77.095 77.095 0 0 1-.05-2.606v-.078c0-.362 0-.754.02-1.116 0-.392.02-.754.03-1.126-.02-.137 0-.274 0-.4a79.23 79.23 0 0 1 .312-4.496c.019-.108.029-.216.048-.314.02-.215.049-.42.059-.617.02-.206.048-.402.077-.617.049-.42.108-.842.166-1.243.02-.108.03-.226.049-.334a33.68 33.68 0 0 1 .273-1.713c.019-.147.048-.284.078-.43.107-.598.204-1.187.33-1.774.137-.666.273-1.322.419-1.988.029-.108.049-.215.078-.313.107-.392.194-.794.302-1.205.165-.627.33-1.263.505-1.89.166-.568.332-1.126.507-1.694.088-.304.175-.588.273-.87.087-.305.194-.599.3-.893.148-.44.304-.872.45-1.313.146-.39.3-.793.447-1.204.165-.42.34-.862.507-1.273v-.02c.029-.088.077-.176.116-.274.146-.392.332-.783.497-1.175.243-.568.496-1.126.759-1.684.107-.216.204-.44.31-.666.108-.206.196-.44.313-.666.419-.872.867-1.743 1.344-2.615.224-.44.477-.872.72-1.312.049-.078.078-.138.117-.206.029-.059.058-.108.088-.166.243-.402.496-.843.75-1.244.223-.372.447-.755.69-1.126.224-.343.438-.696.662-1.038.273-.392.526-.784.789-1.175.019-.02.02-.03.029-.05.36-.528.72-1.047 1.09-1.567a83.332 83.332 0 0 1 1.82-2.438c.312-.392.624-.783.945-1.175.302-.372.613-.754.944-1.126.33-.4.672-.813 1.032-1.205a57.384 57.384 0 0 1 2.103-2.28l.107-.109c.078-.088.146-.147.224-.225a.29.29 0 0 1 .107-.108l.277-.277c.052-.054.104-.11.152-.174a23 23 0 0 1 .974-.98c.506-.498 1.032-.988 1.557-1.487a4.854 4.854 0 0 1 1.363-.863c.146-.049.312-.087.468-.136h.029a.285.285 0 0 1 .078-.02.396.396 0 0 1 .175-.049c.136-.03.273-.049.389-.058.059-.01.136-.03.195-.01zm-55.5 16.944a2.985 2.985 0 0 1 2.035.196c.67.313 1.236.9 1.509 1.743.72 2.272 1.908 5.083 3.875 8.265a52.184 52.184 0 0 0 3.805 5.28c3.018 3.7 7.089 7.696 12.54 11.78-.087.646-.176 1.293-.244 1.94a67.28 67.28 0 0 0-.37 4.641c-.418 8.177.448 16.502 2.6 24.62.194.724.477 1.4.818 2.026v.02C13.115 76.77 3 60.621.819 49.574-.797 41.348-.213 28.53 4.314 19.911a2.881 2.881 0 0 1 1.81-1.459zM33.759.03c.106 0 .204.03.31.05.137.01.254.058.39.087.117.03.244.08.36.138.254.088.497.225.73.372.205.137.419.303.614.5.116.116.224.244.33.361.536.676 1.14 1.44 1.764 2.282.223.304.448.598.67.921.644.872 1.315 1.802 2.006 2.782.253.362.497.734.75 1.116.623.93 1.237 1.89 1.85 2.87-5.676 7.843-9.151 14.346-11.497 23.727a79.5 79.5 0 0 0-.75 3.291c-5.841-4.632-9.785-9.04-12.433-12.947.224-1.087.497-2.164.78-3.26 1.362-5.122 2.813-8.139 5.208-12.682.243-.44.467-.872.7-1.293a60.01 60.01 0 0 1 1.013-1.734c.273-.44.535-.862.808-1.273a40.071 40.071 0 0 1 2.882-3.927A3.979 3.979 0 0 1 33.31 0c.146 0 .303.02.449.03z"/></g></svg>