<svg xmlns="http://www.w3.org/2000/svg" width="50" height="50" viewBox="0 0 50 50">
    <path fill="#FFFFFF" fill-rule="evenodd" d="M102,88 C88.1928813,88 77,76.8071187 77,63 C77,49.1928813 88.1928813,38 102,38 C115.807119,38 127,49.1928813 127,63 C127,76.8071187 115.807119,88 102,88 Z M96.4347736,76 C107.756286,76 113.947146,66.3826751 113.947146,58.0431902 C113.947146,57.7700253 113.94172,57.4980929 113.92977,57.2273899 C115.131581,56.3365329 116.176192,55.2248063 117,53.9592709 C115.897189,54.4619165 114.710378,54.8002955 113.465365,54.9528739 C114.736178,54.1715263 115.711787,52.9355238 116.171992,51.4620396 C114.98278,52.1849386 113.665767,52.7103487 112.263554,52.9939704 C111.140343,51.7671953 109.541327,51 107.77071,51 C104.371677,51 101.615249,53.8263819 101.615249,57.3104466 C101.615249,57.8057085 101.669249,58.2874374 101.774851,58.749476 C96.6592017,58.4855415 92.1231553,55.9741601 89.0877268,52.1554077 C88.5591208,53.0881012 88.2543189,54.1715263 88.2543189,55.3275492 C88.2543189,57.5171649 89.3409287,59.4502278 90.9933445,60.5810265 C89.9835356,60.5490347 89.0349258,60.2647957 88.2057169,59.7916819 C88.2048108,59.8181615 88.2048108,59.8439773 88.2048108,59.8722777 C88.2048108,62.9287555 90.3264326,65.480743 93.1428602,66.0590616 C92.6256552,66.203642 92.0814493,66.2811606 91.5198444,66.2811606 C91.1238404,66.2811606 90.7380365,66.2411956 90.3630336,66.1673436 C91.1466404,68.6750337 93.4188621,70.4998146 96.1128898,70.5508806 C94.0062681,72.2440008 91.3524424,73.2523693 88.4682148,73.2523693 C87.9720089,73.2523693 87.4818049,73.2234288 87,73.165005 C89.7240276,74.9553352 92.9586592,76 96.4350917,76 L96.4347736,76 Z" transform="translate(-77 -38)"/>
</svg>
