<svg xmlns="http://www.w3.org/2000/svg" width="50" height="50" viewBox="0 0 50 50">
    <path fill="#FFFFFF" fill-rule="evenodd" d="M177,88 C163.192881,88 152,76.8071187 152,63 C152,49.1928813 163.192881,38 177,38 C190.807119,38 202,49.1928813 202,63 C202,76.8071187 190.807119,88 177,88 Z M189.991652,63.5725 C189.991652,58.2898241 187.296259,55.8316824 183.700762,55.8317444 C180.798669,55.8317444 179.502114,57.5033949 178.776117,58.6735812 L178.776117,58.7291478 L178.740205,58.7291478 C178.750635,58.7114732 178.765036,58.691814 178.776117,58.6735812 L178.776117,56.2357809 L173.31173,56.2357809 C173.385331,57.8503763 173.31173,73.4341523 173.31173,73.4341523 L178.776651,73.4341523 L178.776651,63.8294957 C178.776651,63.3148841 178.813747,62.8031873 178.957868,62.4355544 C179.353075,61.4071995 180.251401,60.3441154 181.760937,60.3441154 C183.738393,60.3441154 184.528569,61.921563 184.528569,64.232974 L184.528569,73.4341523 L189.991652,73.4341523 L189.991652,63.5725 Z M167.59519,47.9453125 C165.725648,47.9453125 164.502812,49.2286166 164.502812,50.9162053 C164.502812,52.5670182 165.690269,53.8892686 167.522655,53.8892686 L167.55916,53.8892686 C169.46491,53.8892686 170.650115,52.5672663 170.650115,50.9162053 C170.614203,49.2286166 169.46491,47.9453125 167.59519,47.9453125 Z M164.827381,73.4341523 L170.290228,73.4341523 L170.290228,56.2357809 L164.827381,56.2357809 L164.827381,73.4341523 Z" transform="translate(-152 -38)"/>
</svg>
