<svg xmlns="http://www.w3.org/2000/svg" width="50" height="50" viewBox="0 0 50 50">
    <path fill="#FFFFFF" fill-rule="evenodd" d="M257,62 L257,56 C257,55.4477153 256.552285,55 256,55 L252,55 L252,58 L253,58 C253.552285,58 254,58.4477153 254,59 L254,73 L257,73 L257,65 L266,65 L266,73 L269,73 L269,59 C269,58.4477153 269.447715,58 270,58 L271,58 L271,55 L267,55 C266.447715,55 266,55.4477153 266,56 L266,62 L257,62 Z M252,88 C238.192881,88 227,76.8071187 227,63 C227,49.1928813 238.192881,38 252,38 C265.807119,38 277,49.1928813 277,63 C277,76.8071187 265.807119,88 252,88 Z M242,73 C246.970563,73 251,68.9705627 251,64 C251,59.0294373 246.970563,55 242,55 C237.029437,55 233,59.0294373 233,64 C233,68.9705627 237.029437,73 242,73 Z M242,70 C238.686292,70 236,67.3137085 236,64 C236,60.6862915 238.686292,58 242,58 C245.313708,58 248,60.6862915 248,64 C248,67.3137085 245.313708,70 242,70 Z" transform="translate(-227 -38)"/>
</svg>
