<svg xmlns="http://www.w3.org/2000/svg" width="342" height="88" fill="none" viewBox="0 0 342 88"><path fill="#1b1512" d="M114.67 66.78c-2.76 0-5.16-.44-7.18-1.3a9.18 9.18 0 0 1-4.64-4.37c-1.08-2.05-1.6-4.82-1.6-8.3l.05-25.8-8.1-.01v-6.52l8.11.02 1.04-11.2h6.72l-.02 11.2 13.46.03v6.52l-13.47-.02L109 52.8c0 2.88.58 4.83 1.75 5.84 1.16 1.01 3.22 1.52 6.17 1.53h4.97l-.01 6.62h-7.19v-.02Zm31.4 1.16c-3.58 0-6.68-.72-9.36-2.13a14.1 14.1 0 0 1-6.15-6.53c-1.44-2.94-2.16-6.6-2.15-11.01l.05-27.72h7.75l-.05 26.9c0 4.66 1 8.13 3.02 10.42 2.02 2.3 4.9 3.46 8.65 3.46 2.58 0 4.9-.62 6.96-1.87a13.07 13.07 0 0 0 4.9-5.4c1.2-2.36 1.8-5.25 1.8-8.68l.05-24.78h7.75l-.1 46.27h-7l-.45-8.1a15.62 15.62 0 0 1-6.27 6.75 18.19 18.19 0 0 1-9.4 2.4v.02Zm33.47-1.04.12-66.08h7.75l-.12 66.09h-7.75v-.01Zm36.94 1.18c-4.36 0-8.21-1.02-11.56-3.05a21.04 21.04 0 0 1-7.86-8.5c-1.9-3.65-2.84-7.88-2.83-12.72 0-4.9.96-9.14 2.83-12.75a20.66 20.66 0 0 1 7.94-8.43 22.58 22.58 0 0 1 11.75-3c4.54 0 8.4 1.02 11.56 3.04a20.37 20.37 0 0 1 7.26 7.95 23.13 23.13 0 0 1 2.51 10.79v1.93c0 .67-.03 1.43-.1 2.29l-37.96-.07v-5.97l30.5.06c-.17-4.21-1.56-7.53-4.17-9.92-2.6-2.4-5.87-3.6-9.8-3.6-2.64 0-5.08.6-7.32 1.78a13.6 13.6 0 0 0-5.4 5.22c-1.36 2.3-2.04 5.15-2.05 8.58v2.57c0 3.79.68 6.98 2.06 9.55a14.26 14.26 0 0 0 5.42 5.8 14.37 14.37 0 0 0 7.23 1.94c3.26 0 5.95-.7 8.07-2.15a11.94 11.94 0 0 0 4.57-5.81h7.65a19.15 19.15 0 0 1-3.89 7.44 19.2 19.2 0 0 1-6.88 5.17 22.75 22.75 0 0 1-9.53 1.87v-.01Zm44.36.08c-3.75 0-6.88-.68-9.4-2a13.3 13.3 0 0 1-5.6-5.24 14.24 14.24 0 0 1-1.84-7.11c0-3.12.82-5.77 2.45-7.93a15.1 15.1 0 0 1 6.92-4.95 29.72 29.72 0 0 1 10.56-1.67l12.25.02c0-2.88-.44-5.28-1.32-7.21a9.45 9.45 0 0 0-3.87-4.37 12.35 12.35 0 0 0-6.3-1.48c-2.96 0-5.5.73-7.66 2.2a9.4 9.4 0 0 0-3.97 6.5h-7.93a15.3 15.3 0 0 1 3.38-8.3 18.22 18.22 0 0 1 7.16-5.14 23.46 23.46 0 0 1 9.03-1.78c4.3 0 7.87.8 10.73 2.37a15.18 15.18 0 0 1 6.4 6.53 21.54 21.54 0 0 1 2.1 9.86l-.05 28.63h-6.91l-.45-8.17a17.52 17.52 0 0 1-2.35 3.62 14.7 14.7 0 0 1-3.37 2.93c-1.3.82-2.75 1.48-4.38 1.96-1.63.49-3.5.73-5.58.73Zm1.2-6.51c2.15 0 4.1-.44 5.86-1.32a13.25 13.25 0 0 0 4.48-3.67 17.24 17.24 0 0 0 2.82-5.18 18.3 18.3 0 0 0 .97-5.96v-.28l-11.6-.02c-3.02 0-5.45.35-7.29 1.04-1.84.7-3.17 1.68-3.97 2.93a7.8 7.8 0 0 0-1.2 4.27 8 8 0 0 0 1.14 4.32 7.48 7.48 0 0 0 3.41 2.84c1.5.68 3.3 1.02 5.4 1.03h-.02Zm32.54 25.66.12-66.45h7l.63 7.55a20.4 20.4 0 0 1 3.79-4.17 18.94 18.94 0 0 1 5.49-3.2c2.12-.83 4.6-1.24 7.42-1.24 4.55 0 8.5 1.07 11.84 3.19 3.35 2.11 5.95 5 7.81 8.64a27 27 0 0 1 2.8 12.54c0 4.65-.96 8.8-2.84 12.42a21.33 21.33 0 0 1-7.89 8.57c-3.38 2.07-7.34 3.1-11.89 3.1-3.74 0-7.04-.78-9.9-2.32a16.06 16.06 0 0 1-6.58-6.43l-.05 27.81h-7.74Zm23.46-25.74c3 0 5.68-.73 8.02-2.2a15.11 15.11 0 0 0 5.49-6.09c1.32-2.6 2-5.64 2-9.13 0-3.54-.66-6.64-1.97-9.27s-3.14-4.69-5.47-6.16-5-2.22-8.01-2.22c-3.07 0-5.78.73-8.11 2.19a14.76 14.76 0 0 0-5.45 6.14 20.88 20.88 0 0 0-1.96 9.27c0 3.48.63 6.53 1.92 9.14a14.8 14.8 0 0 0 5.42 6.11 14.97 14.97 0 0 0 8.1 2.23l.02-.01Z"/><path fill="#ff6e30" fill-rule="evenodd" d="M39.15 13.73c-5.07 6.9-8.17 12.61-10.27 20.86-.24.97-.47 1.93-.67 2.9-5.21-4.08-8.73-7.95-11.1-11.39.2-.95.44-1.9.7-2.87 1.21-4.5 2.5-7.15 4.65-11.15l.62-1.13a42.24 42.24 0 0 1 1.63-2.65 35.21 35.21 0 0 1 2.57-3.45 3.58 3.58 0 0 1 2.74-1.24l.4.02c.1 0 .18.03.28.04.12.01.22.06.34.08l.33.12c.22.08.44.2.65.33a3.6 3.6 0 0 1 .55.44l.3.32a75.09 75.09 0 0 1 1.57 2l.6.81 1.79 2.45.67.98a98.34 98.34 0 0 1 1.65 2.53Zm-9.68 59.32C11.99 71.12 2.95 56.92 1 47.2-.44 39.97.09 28.7 4.13 21.12a2.56 2.56 0 0 1 1.62-1.29 2.7 2.7 0 0 1 1.81.18 2.52 2.52 0 0 1 1.35 1.53c.64 2 1.7 4.47 3.46 7.27a45.91 45.91 0 0 0 3.4 4.64 62.79 62.79 0 0 0 11.2 10.36 57.4 57.4 0 0 0-.22 1.7 58.21 58.21 0 0 0-.33 4.09c-.38 7.19.4 14.51 2.32 21.65.17.64.42 1.23.73 1.78v.02Zm37.3-31.16c-.06.5-.15 1-.25 1.49l-.04.24-.24 1.07a47.95 47.95 0 0 1-.42 1.68l-.03.08c-.12.47-.25.92-.4 1.36a39 39 0 0 1-1.01 2.83 35.95 35.95 0 0 1-1.89 4.02 46.48 46.48 0 0 1-.88 1.55l-.61.98a37.15 37.15 0 0 1-2.53 3.5c-.3.38-.6.75-.93 1.1a35.86 35.86 0 0 1-.94 1.06c-.28.3-.56.6-.86.87-.27.27-.52.53-.79.77a28.57 28.57 0 0 1-.08.07c0 .02-.02.03-.04.05a17 17 0 0 1-.8.71c-.27.25-.53.48-.8.7l-.2.15c-.3.27-.61.5-.93.74-.44.35-.9.68-1.36 1l-.16.12a24.57 24.57 0 0 1-1.45.95c-.24.13-.47.28-.7.42-.25.13-.47.27-.7.38-.4.22-.76.42-1.15.6-.37.2-.76.37-1.14.54l-.6.25a5 5 0 0 1-.59.24 27.4 27.4 0 0 1-4.74 1.41l-1.25.22a3.75 3.75 0 0 1-1.18-.01l-.3-.07c-.1-.03-.2-.05-.3-.1-.1-.02-.2-.06-.3-.1a1.82 1.82 0 0 1-.4-.21.48.48 0 0 1-.14-.08 1.92 1.92 0 0 1-.35-.24 5.35 5.35 0 0 1-.23-.22c-.1-.07-.2-.19-.3-.29-.09-.1-.16-.22-.24-.33a2.62 2.62 0 0 1-.3-.55 3.04 3.04 0 0 1-.23-.6 80.47 80.47 0 0 1-.53-2.08 34.21 34.21 0 0 1-.35-1.64l-.25-1.2a79.22 79.22 0 0 1-.42-2.57 1.82 1.82 0 0 1-.05-.3 1.22 1.22 0 0 1-.03-.25 10.9 10.9 0 0 1-.12-.92c-.03-.08-.03-.17-.04-.25a64.35 64.35 0 0 1-.15-1.28 6.23 6.23 0 0 1-.05-.55c-.05-.47-.1-.92-.13-1.39l-.01-.3-.03-.34v-.02a46.62 46.62 0 0 1-.1-1.9 66.24 66.24 0 0 1-.04-2.3v-.07c0-.31 0-.66.02-.98l.02-.99v-.35c.06-1.3.15-2.63.28-3.95l.05-.28.05-.54.07-.54c.04-.37.1-.74.15-1.1l.04-.29.24-1.5.07-.39c.1-.52.18-1.04.3-1.56l.37-1.74.07-.28c.1-.34.17-.7.27-1.06l.45-1.66a105.56 105.56 0 0 1 .97-3.04l.4-1.15.4-1.06.45-1.12v-.02l.1-.24c.13-.35.3-.7.45-1.04.21-.5.44-.99.67-1.48l.28-.58c.1-.18.18-.39.28-.59.37-.76.77-1.53 1.2-2.3.2-.39.43-.76.64-1.15l.1-.18.09-.15.67-1.1.61-.98.6-.92.7-1.03.02-.04a75.62 75.62 0 0 1 2.6-3.52l.85-1.04c.27-.33.54-.66.84-.99.3-.35.6-.71.92-1.06a50.44 50.44 0 0 1 1.88-2l.1-.1c.06-.08.12-.13.2-.2a.25.25 0 0 1 .09-.1l.1-.1c.1-.09.2-.18.28-.29a43.86 43.86 0 0 1 2.27-2.16 4.33 4.33 0 0 1 1.21-.77l.42-.12h.02l.07-.01a.36.36 0 0 1 .16-.05l.35-.05c.05 0 .12-.03.17 0a4.06 4.06 0 0 1 1.17.11l.47.16c.12.05.26.1.38.17a3.83 3.83 0 0 1 1.54 1.5c5.64 9.94 9.77 22.64 7.95 34.96l-.04.05Z" clip-rule="evenodd"/></svg>