<svg xmlns="http://www.w3.org/2000/svg" width="493" height="124" fill="none">
  <path fill="#fff" d="M138.591 90.358c-5.358 0-10.112-1.245-14.263-3.735-4.075-2.49-7.282-5.962-9.622-10.415-2.339-4.528-3.509-9.773-3.509-15.734 0-6.038 1.132-11.283 3.396-15.735 2.339-4.453 5.584-7.924 9.735-10.415 4.226-2.49 9.056-3.735 14.49-3.735 5.584 0 10.301 1.245 14.15 3.735 3.924 2.49 6.905 5.773 8.943 9.849 2.113 4 3.169 8.414 3.169 13.244v2.377c0 .83-.038 1.774-.113 2.83h-46.639v-7.358h37.47c-.227-5.207-1.962-9.282-5.207-12.225-3.17-2.944-7.17-4.415-12-4.415-3.245 0-6.263.755-9.056 2.264-2.717 1.434-4.905 3.584-6.565 6.452-1.661 2.793-2.491 6.302-2.491 10.528v3.17c0 4.679.83 8.603 2.491 11.772 1.735 3.17 3.962 5.547 6.678 7.132 2.793 1.585 5.774 2.377 8.943 2.377 4 0 7.283-.868 9.849-2.603 2.641-1.812 4.528-4.227 5.66-7.245h9.395a23.692 23.692 0 0 1-4.754 9.169c-2.264 2.717-5.094 4.868-8.49 6.452-3.321 1.51-7.207 2.264-11.66 2.264ZM173.385 89V31.947h8.603l.453 9.962c1.811-3.547 4.377-6.302 7.697-8.264 3.396-2.038 7.245-3.056 11.547-3.056 4.452 0 8.301.905 11.546 2.716 3.245 1.736 5.773 4.415 7.584 8.038 1.812 3.547 2.717 8.075 2.717 13.584V89h-9.509V55.946c0-5.736-1.283-10.038-3.848-12.905-2.491-2.868-6.038-4.302-10.641-4.302-3.17 0-6 .793-8.49 2.377-2.491 1.51-4.491 3.736-6 6.68-1.434 2.867-2.151 6.452-2.151 10.753V89h-9.508Zm79.038 1.358c-4.603 0-8.452-.792-11.546-2.377-3.094-1.66-5.396-3.81-6.906-6.452-1.509-2.717-2.264-5.66-2.264-8.83 0-3.849.982-7.094 2.944-9.735 2.037-2.717 4.867-4.755 8.49-6.113 3.698-1.434 8.037-2.15 13.018-2.15h15.055c0-3.548-.566-6.49-1.698-8.83-1.056-2.415-2.641-4.227-4.754-5.434-2.038-1.207-4.604-1.811-7.698-1.811-3.622 0-6.754.906-9.395 2.717-2.642 1.81-4.264 4.49-4.868 8.037h-9.735c.453-4.075 1.811-7.471 4.075-10.188 2.34-2.792 5.283-4.906 8.83-6.34a28.051 28.051 0 0 1 11.093-2.263c5.283 0 9.66.98 13.132 2.943 3.546 1.887 6.188 4.566 7.924 8.037 1.735 3.396 2.603 7.433 2.603 12.112V89h-8.49l-.566-10.075a21.158 21.158 0 0 1-2.943 4.528c-1.132 1.359-2.49 2.566-4.075 3.623-1.585.98-3.396 1.773-5.434 2.377-1.962.603-4.226.905-6.792.905Zm1.472-8.037c2.641 0 5.018-.528 7.131-1.585a17.035 17.035 0 0 0 5.547-4.528 21.182 21.182 0 0 0 3.396-6.452 21.841 21.841 0 0 0 1.245-7.358v-.34h-14.263c-3.698 0-6.679.453-8.943 1.359-2.264.83-3.886 2.037-4.867 3.622-.981 1.51-1.472 3.245-1.472 5.207 0 2.038.453 3.811 1.358 5.32.982 1.51 2.378 2.68 4.189 3.51 1.887.83 4.113 1.245 6.679 1.245ZM290.905 89V7.496h9.509V89h-9.509Zm45.694 1.358c-5.358 0-10.113-1.245-14.263-3.735-4.075-2.49-7.283-5.962-9.622-10.415-2.34-4.528-3.509-9.773-3.509-15.734 0-6.038 1.132-11.283 3.396-15.735 2.339-4.453 5.584-7.924 9.735-10.415 4.226-2.49 9.056-3.735 14.489-3.735 5.585 0 10.302 1.245 14.15 3.735 3.925 2.49 6.906 5.773 8.943 9.849 2.113 4 3.17 8.414 3.17 13.244v2.377c0 .83-.038 1.774-.113 2.83h-46.639v-7.358h37.469c-.226-5.207-1.962-9.282-5.207-12.225-3.169-2.944-7.169-4.415-11.999-4.415-3.245 0-6.264.755-9.056 2.264-2.717 1.434-4.905 3.584-6.566 6.452-1.66 2.793-2.49 6.302-2.49 10.528v3.17c0 4.679.83 8.603 2.49 11.772 1.736 3.17 3.962 5.547 6.679 7.132 2.792 1.585 5.773 2.377 8.943 2.377 4 0 7.283-.868 9.848-2.603 2.642-1.812 4.528-4.227 5.66-7.245h9.396a23.692 23.692 0 0 1-4.754 9.169c-2.264 2.717-5.094 4.868-8.49 6.452-3.321 1.51-7.207 2.264-11.66 2.264Zm53.358 0c-4.603 0-8.452-.792-11.546-2.377-3.094-1.66-5.396-3.81-6.906-6.452-1.509-2.717-2.264-5.66-2.264-8.83 0-3.849.981-7.094 2.944-9.735 2.037-2.717 4.867-4.755 8.49-6.113 3.698-1.434 8.037-2.15 13.018-2.15h15.055c0-3.548-.566-6.49-1.698-8.83-1.056-2.415-2.641-4.227-4.754-5.434-2.038-1.207-4.604-1.811-7.698-1.811-3.622 0-6.754.906-9.395 2.717-2.642 1.81-4.264 4.49-4.868 8.037H370.6c.453-4.075 1.811-7.471 4.075-10.188 2.34-2.792 5.283-4.906 8.83-6.34a28.048 28.048 0 0 1 11.093-2.263c5.283 0 9.66.98 13.132 2.943 3.546 1.887 6.188 4.566 7.924 8.037 1.735 3.396 2.603 7.433 2.603 12.112V89h-8.49l-.566-10.075a21.158 21.158 0 0 1-2.943 4.528c-1.132 1.359-2.49 2.566-4.075 3.623-1.585.98-3.396 1.773-5.434 2.377-1.962.603-4.226.905-6.792.905Zm1.472-8.037c2.641 0 5.018-.528 7.131-1.585a17.035 17.035 0 0 0 5.547-4.528 21.182 21.182 0 0 0 3.396-6.452 21.841 21.841 0 0 0 1.245-7.358v-.34h-14.263c-3.698 0-6.679.453-8.943 1.359-2.264.83-3.886 2.037-4.867 3.622-.981 1.51-1.472 3.245-1.472 5.207 0 2.038.453 3.811 1.358 5.32.982 1.51 2.378 2.68 4.189 3.51 1.887.83 4.113 1.245 6.679 1.245ZM428.439 89V31.947h8.603l.453 9.962c1.811-3.547 4.377-6.302 7.698-8.264 3.396-2.038 7.244-3.056 11.546-3.056 4.453 0 8.301.905 11.547 2.716 3.245 1.736 5.773 4.415 7.584 8.038 1.811 3.547 2.717 8.075 2.717 13.584V89h-9.509V55.946c0-5.736-1.283-10.038-3.849-12.905-2.49-2.868-6.037-4.302-10.641-4.302-3.169 0-5.999.793-8.49 2.377-2.49 1.51-4.49 3.736-5.999 6.68-1.434 2.867-2.151 6.452-2.151 10.753V89h-9.509Z"/>
  <g fill="#FF6E30" clip-path="url(#a)">
    <path fill-rule="evenodd" d="M76.15 68.242c1.541-3.333 4.58-8.637 4.67-17.836 0-.094.092-.14.182-.188.09 0 .182.094.182.188a27.3 27.3 0 0 1 .68 4.177c.09.798.136 1.69.136 2.723 0 23.374-18.414 42.337-41 42.337S0 80.68 0 57.306C0 33.93 18.368 14.969 41.09 14.969c3.04 0 5.851 1.971 6.758 4.787.545 1.596.817 3.286.862 5.257 1.406 14.644-10.93 26.19-11.202 26.379-.227.281-5.987 6.383-5.76 14.55.09 4.975 2.358 9.575 6.622 13.612 4.898 4.646 10.658 6.43 16.78 5.21C65.627 82.698 74.245 72.372 76.06 68.43" clip-rule="evenodd"/>
    <path d="M63.36 3c-.862-.047-1.633.61-1.679 1.549-.09.892.59 1.69 1.452 1.737.907.047 1.633-.61 1.723-1.55.046-.891-.635-1.689-1.496-1.736Zm7.075 6.383c-1.678 0-3.039 1.409-3.039 3.145 0 1.737 1.36 3.145 3.039 3.145 1.678 0 3.038-1.408 3.038-3.145s-1.36-3.145-3.038-3.145Zm-10.93 2.629c-2.268-.14-4.173 1.596-4.355 3.896-.136 2.347 1.588 4.318 3.81 4.506 2.268.14 4.173-1.643 4.309-3.943.136-2.3-1.542-4.318-3.765-4.46Zm4.716 12.86c-3.673-.281-6.848 2.629-7.075 6.43-.272 3.803 2.54 7.041 6.213 7.323 3.674.235 6.849-2.675 7.076-6.43.227-3.802-2.54-7.088-6.214-7.322ZM53.608 40.41c-2.948 8.824-9.025 13.377-9.07 13.424 0 0-12.02 9.575-1.18 19.948 4.99 4.74 10.387 5.069 15.194 3.473 6.259-2.77 10.794-9.012 11.248-16.475.635-10.185-6.531-19.056-16.192-20.37Z"/>
  </g>
  <defs>
    <clipPath id="a">
      <path fill="#fff" d="M0 3h82v96.643H0z"/>
    </clipPath>
  </defs>
</svg>
