<svg xmlns="http://www.w3.org/2000/svg" width="89.184" height="83.197"><g fill="#fff"><path d="M59.905 50.719c-.172-2.52 2.723-4.051 4.708-2.491l23.455 18.429c1.999 1.57 1.169 4.769-1.342 5.169l-10.677 1.702a2.91 2.91 0 0 0-1.663.879l-7.414 7.87c-1.744 1.85-4.855.737-5.03-1.8z"/><path d="M61.626 1.508a4.48 4.48 0 0 1 1.304.137c.176.049.36.108.536.176.136.059.282.117.419.196.194.107.389.225.564.362a5.4 5.4 0 0 1 .437.392c.283.274.526.587.72.95 6.319 11.3 10.944 25.746 8.909 39.76l-.04.048a30.89 30.89 0 0 1-.281 1.695l-.05.274c-.086.401-.164.813-.271 1.214-.074.327-.152.655-.231.98l-5.322-4.181-.287-.217c-5.965-4.338-14.362.103-14.132 7.476l.019.359 1.553 22.708c-.148.097-.296.193-.448.286a6.466 6.466 0 0 1-.311.216c-.273.147-.527.313-.79.479-.272.147-.525.304-.778.431-.438.245-.857.47-1.285.676-.418.225-.857.421-1.285.617-.224.088-.438.196-.662.284a5.6 5.6 0 0 1-.662.275 30.326 30.326 0 0 1-5.316 1.605c-.467.088-.925.167-1.392.245a4.052 4.052 0 0 1-1.324-.01 4.656 4.656 0 0 1-.34-.078c-.107-.029-.224-.059-.331-.108-.107-.029-.224-.078-.331-.117a2.075 2.075 0 0 1-.45-.245.559.559 0 0 1-.164-.088 2.154 2.154 0 0 1-.39-.275 5.393 5.393 0 0 1-.252-.244c-.117-.088-.224-.215-.331-.333-.107-.117-.195-.255-.283-.373a2.984 2.984 0 0 1-.34-.626 3.46 3.46 0 0 1-.254-.695 90.387 90.387 0 0 1-.584-2.361 39.346 39.346 0 0 1-.4-1.86c-.086-.45-.175-.901-.272-1.371-.175-.96-.331-1.94-.477-2.919a2.032 2.032 0 0 1-.058-.343 1.37 1.37 0 0 1-.03-.284 12.681 12.681 0 0 1-.135-1.037c-.03-.088-.03-.196-.05-.284-.058-.48-.117-.979-.165-1.46a7.335 7.335 0 0 1-.058-.626c-.05-.529-.107-1.049-.137-1.577 0-.118-.02-.226-.02-.333-.01-.137-.028-.274-.028-.402v-.02a54.03 54.03 0 0 1-.107-2.163 77.095 77.095 0 0 1-.05-2.606v-.078c0-.362 0-.754.02-1.116 0-.392.02-.754.03-1.126-.02-.137 0-.274 0-.401a79.23 79.23 0 0 1 .312-4.496c.019-.107.028-.215.048-.313.019-.215.048-.421.058-.617.02-.206.049-.402.078-.617.049-.421.107-.842.165-1.243.02-.108.03-.226.049-.334a35.22 35.22 0 0 1 .273-1.713c.019-.147.049-.284.078-.431.107-.597.204-1.186.33-1.774.137-.665.274-1.321.42-1.987.029-.107.048-.215.077-.313.107-.392.196-.794.303-1.205.165-.627.33-1.263.505-1.89.166-.568.33-1.126.506-1.694.088-.304.176-.588.273-.871.087-.304.195-.598.303-.892.146-.44.3-.872.447-1.313.146-.391.302-.792.448-1.204.166-.42.34-.862.506-1.273v-.02c.029-.088.078-.176.117-.274.146-.392.33-.783.496-1.175.244-.568.497-1.126.76-1.684.107-.216.204-.441.31-.666.108-.206.196-.441.313-.666a55.82 55.82 0 0 1 1.343-2.615c.224-.44.477-.872.72-1.312.049-.079.079-.138.118-.206.029-.059.058-.108.088-.166.243-.402.495-.843.749-1.244.223-.373.448-.754.69-1.126.225-.343.439-.696.663-1.039.273-.391.525-.783.788-1.174.02-.02.02-.03.029-.05.36-.528.72-1.048 1.09-1.567a83.332 83.332 0 0 1 1.822-2.438c.31-.392.623-.783.944-1.175.302-.372.613-.754.944-1.126a29.3 29.3 0 0 1 1.032-1.205 57.453 57.453 0 0 1 2.103-2.281l.107-.109c.078-.087.146-.146.224-.224a.285.285 0 0 1 .108-.109c.048-.048.077-.087.116-.117.107-.107.214-.205.31-.333.313-.333.624-.646.975-.98.506-.499 1.032-.988 1.557-1.487a4.854 4.854 0 0 1 1.364-.863c.146-.049.31-.088.467-.137h.029s.049-.019.078-.019a.394.394 0 0 1 .176-.049c.136-.03.272-.049.388-.058.059-.01.137-.03.196-.01zm-55.5 16.944a2.983 2.983 0 0 1 2.034.195c.672.314 1.236.902 1.509 1.744.72 2.272 1.908 5.083 3.875 8.265a52.059 52.059 0 0 0 3.806 5.279c3.018 3.701 7.088 7.697 12.539 11.78-.087.647-.175 1.294-.243 1.94a67.286 67.286 0 0 0-.37 4.642c-.418 8.177.448 16.502 2.6 24.62.194.724.477 1.4.817 2.026v.02C13.115 76.769 3 60.621.819 49.574-.797 41.348-.213 28.53 4.314 19.911a2.882 2.882 0 0 1 1.812-1.459zM33.76.03c.106 0 .204.03.31.05.137.009.254.058.39.087.117.03.243.079.36.138.253.088.497.225.73.372.205.137.419.303.614.499.117.117.224.245.33.362.536.676 1.14 1.44 1.763 2.282.224.304.448.598.67.921a162.75 162.75 0 0 1 2.007 2.782c.253.362.496.734.749 1.116.623.93 1.238 1.89 1.85 2.869-5.675 7.844-9.151 14.347-11.497 23.728a79.463 79.463 0 0 0-.75 3.291c-5.841-4.632-9.784-9.04-12.432-12.947.224-1.087.496-2.164.779-3.26 1.363-5.122 2.814-8.138 5.209-12.682.243-.441.467-.872.7-1.293.332-.588.672-1.176 1.012-1.734.273-.44.536-.862.809-1.273a40.071 40.071 0 0 1 2.882-3.927A3.978 3.978 0 0 1 33.31 0c.146 0 .303.02.449.03z"/></g></svg>