<svg xmlns="http://www.w3.org/2000/svg" width="133.001" height="80.476"><g fill="#fff"><path d="M99.25 40.897c-1.041 0-1.926.361-2.655 1.083-.73.721-1.094 1.597-1.094 2.628 0 1.03.365 1.907 1.094 2.628.729.722 1.614 1.082 2.656 1.082s1.927-.36 2.656-1.082c.729-.721 1.094-1.597 1.094-2.628 0-1.03-.365-1.907-1.094-2.628-.73-.722-1.614-1.083-2.656-1.083zm0 24.737c-1.041 0-1.926.361-2.655 1.082-.73.722-1.094 1.598-1.094 2.629 0 1.03.365 1.907 1.094 2.628.729.722 1.614 1.082 2.656 1.082s1.927-.36 2.656-1.082c.729-.721 1.094-1.598 1.094-2.628 0-1.031-.365-1.907-1.094-2.629-.73-.721-1.614-1.082-2.656-1.082zM90.5 33.476h40c.709 0 1.303.237 1.782.712.479.474.719 1.061.719 1.762v17.316c0 .701-.24 1.288-.72 1.762-.478.474-1.072.711-1.78.711h-40c-.708 0-1.302-.237-1.781-.711-.48-.474-.72-1.061-.72-1.762V35.95c0-.7.24-1.288.72-1.763.479-.474 1.073-.71 1.78-.71zm2.5 4.948v12.368h35V38.424Zm-2.5 19.789h40c.709 0 1.303.237 1.782.711.479.474.719 1.062.719 1.763v17.316c0 .701-.24 1.288-.72 1.762-.478.474-1.072.711-1.78.711h-40c-.708 0-1.302-.237-1.781-.711-.48-.474-.72-1.061-.72-1.762V60.687c0-.701.24-1.289.72-1.763.479-.474 1.073-.711 1.78-.711zm2.5 4.948v12.368h35V63.161ZM83.5 0 60.1 23.335l4.9 5.058 19.5-19.5 19.6 12.402H88v7.098h28V0h-7v16.237z"/><path d="M61.625 2.901c.438-.02.886.029 1.304.136.176.05.36.109.537.177.136.059.282.117.418.196.194.107.389.225.564.362.146.117.302.255.438.392.283.274.526.587.72.95a82.777 82.777 0 0 1 1.956 3.718L53.778 22.579a1 1 0 0 0-.012 1.404l10.47 10.808a1 1 0 0 0 1.427.011l8.14-8.14c1.222 5.956 1.596 12.124.712 18.212l-.04.048a30.905 30.905 0 0 1-.281 1.695l-.05.274c-.086.401-.164.813-.271 1.214a54.075 54.075 0 0 1-.468 1.92c-.02.03-.02.058-.03.088a25.994 25.994 0 0 1-.447 1.548 44.577 44.577 0 0 1-1.14 3.211c-.145.392-.31.764-.476 1.146a41.539 41.539 0 0 1-1.012 2.213c-.195.401-.4.813-.623 1.215a53.624 53.624 0 0 1-.984 1.762c-.224.373-.448.754-.691 1.117a41.247 41.247 0 0 1-1.061 1.596 44.01 44.01 0 0 1-.79 1.117c-.31.44-.642.862-.982 1.273a24.29 24.29 0 0 1-1.033 1.243c-.34.402-.7.814-1.06 1.205-.311.343-.623.675-.954.988-.302.304-.584.598-.886.873l-.137.136a22.05 22.05 0 0 1-.895.814c-.302.284-.594.538-.896.793-.077.058-.146.117-.224.176-.341.303-.691.568-1.041.842-.497.392-1.003.764-1.53 1.126-.057.049-.116.088-.174.137-.438.304-.867.598-1.315.872a6.466 6.466 0 0 1-.311.216c-.273.147-.526.313-.788.479-.273.147-.527.304-.78.431-.438.245-.857.47-1.285.676-.418.225-.856.421-1.284.617-.224.088-.438.196-.662.284a5.6 5.6 0 0 1-.662.275 30.326 30.326 0 0 1-5.316 1.605c-.467.088-.925.167-1.392.245a4.052 4.052 0 0 1-1.324-.01 4.679 4.679 0 0 1-.341-.078c-.107-.029-.224-.059-.331-.108-.107-.03-.225-.078-.331-.117a2.07 2.07 0 0 1-.448-.245.564.564 0 0 1-.166-.088 2.147 2.147 0 0 1-.388-.275 5.969 5.969 0 0 1-.254-.244c-.117-.088-.224-.215-.331-.333-.107-.117-.195-.255-.283-.373a2.984 2.984 0 0 1-.34-.626 3.48 3.48 0 0 1-.253-.695 90.387 90.387 0 0 1-.584-2.361 39.352 39.352 0 0 1-.4-1.86c-.087-.45-.175-.901-.272-1.371-.175-.96-.331-1.94-.477-2.919a2.032 2.032 0 0 1-.058-.343 1.37 1.37 0 0 1-.03-.284 12.686 12.686 0 0 1-.136-1.037c-.03-.088-.03-.196-.048-.284-.06-.48-.118-.979-.166-1.459a7.393 7.393 0 0 1-.06-.627c-.047-.529-.105-1.048-.135-1.577 0-.118-.02-.226-.02-.333-.01-.137-.028-.274-.028-.402v-.019a54.126 54.126 0 0 1-.108-2.164 77.105 77.105 0 0 1-.05-2.606v-.078c0-.362 0-.754.02-1.116 0-.392.02-.754.03-1.126-.02-.137 0-.274 0-.401.059-1.489.166-2.987.312-4.495.019-.108.029-.216.049-.314.019-.215.048-.421.058-.617.02-.206.049-.402.078-.617.049-.421.107-.842.165-1.243.02-.108.03-.226.049-.334.078-.567.166-1.146.273-1.713.019-.147.049-.284.078-.431.107-.597.204-1.186.33-1.773.137-.666.273-1.322.419-1.988.029-.107.049-.215.078-.313.107-.392.195-.794.302-1.205.165-.627.33-1.263.506-1.89.166-.568.33-1.126.506-1.694.088-.304.176-.588.273-.871.087-.304.194-.598.302-.892.146-.44.302-.872.448-1.313.146-.391.3-.793.447-1.204.166-.42.34-.862.507-1.273v-.02c.029-.088.077-.176.116-.274.146-.392.332-.783.497-1.175.244-.568.496-1.126.759-1.684.107-.216.204-.441.31-.666.109-.206.196-.441.313-.666.419-.872.867-1.743 1.344-2.615.224-.44.477-.871.72-1.312.049-.078.079-.138.118-.206.029-.059.057-.108.087-.166.243-.402.496-.843.75-1.244.223-.372.448-.754.69-1.126.225-.343.439-.696.663-1.039.273-.391.525-.783.788-1.174.02-.02.02-.03.029-.05.36-.528.72-1.047 1.09-1.567a83.332 83.332 0 0 1 1.822-2.438c.31-.392.623-.783.944-1.175.302-.372.613-.754.944-1.126.33-.401.67-.813 1.032-1.205a56.64 56.64 0 0 1 2.103-2.281c.029-.03.077-.08.106-.108.078-.089.147-.147.225-.225a.282.282 0 0 1 .107-.108l.276-.277a1.88 1.88 0 0 0 .152-.174c.312-.333.623-.646.974-.98.506-.498 1.032-.988 1.557-1.487a4.856 4.856 0 0 1 1.364-.863c.146-.049.31-.088.467-.136h.029s.049-.02.078-.02a.396.396 0 0 1 .175-.049c.136-.03.273-.049.389-.058.059-.01.136-.03.195-.01zm-55.5 16.944a2.985 2.985 0 0 1 2.035.195c.672.314 1.236.902 1.509 1.744.72 2.272 1.908 5.083 3.875 8.265a52.182 52.182 0 0 0 3.806 5.279c3.018 3.701 7.088 7.697 12.539 11.78-.087.647-.175 1.294-.243 1.94a67.284 67.284 0 0 0-.37 4.642c-.418 8.177.448 16.502 2.6 24.62.194.724.477 1.4.817 2.026v.02C13.115 78.162 3 62.014.819 50.967-.797 42.741-.213 29.922 4.314 21.304a2.88 2.88 0 0 1 1.81-1.459zM33.759 1.422c.106 0 .204.03.31.05.137.009.255.058.39.087.118.03.244.079.36.138.254.088.498.225.732.372.204.137.418.303.613.499.117.117.224.245.33.362a86.94 86.94 0 0 1 1.763 2.282c.224.304.448.598.67.921a162.75 162.75 0 0 1 2.007 2.782c.253.362.496.734.749 1.116.623.93 1.237 1.89 1.85 2.869-5.676 7.844-9.151 14.347-11.497 23.728a79.5 79.5 0 0 0-.75 3.291c-5.841-4.632-9.784-9.04-12.432-12.947.224-1.087.496-2.164.779-3.26 1.362-5.122 2.814-8.138 5.209-12.682.243-.44.466-.872.7-1.293a46.875 46.875 0 0 1 1.82-3.007 40.071 40.071 0 0 1 2.883-3.927 3.979 3.979 0 0 1 3.066-1.41c.146 0 .302.02.448.03z"/></g></svg>