<svg xmlns="http://www.w3.org/2000/svg" width="141.356" height="79.333"><g fill="#fff"><path stroke="#fff" stroke-width=".25" d="m96.906 9.973 9.819 9.75.088.088-.088.088-3.437 3.413-.088.087-.088-.087-3.715-3.689v.127c0 4.03 1.429 7.45 4.29 10.27 2.86 2.82 6.336 4.23 10.436 4.23a13.3 13.3 0 0 0 3.1-.362 13.954 13.954 0 0 0 2.98-1.087l.08-.04.065.063 3.68 3.657.118.115-.143.08a20.45 20.45 0 0 1-4.815 2.024 19.14 19.14 0 0 1-5.065.675c-5.514 0-10.21-1.902-14.08-5.703-3.87-3.802-5.805-8.445-5.805-13.922v-.126l-3.714 3.689-.087.086-.088-.087-3.437-3.413-.09-.088.09-.088 9.818-9.75.088-.088zm16.97-9.848c5.515 0 10.21 1.902 14.08 5.703 3.87 3.802 5.806 8.445 5.806 13.922v.125l3.714-3.688.087-.086.088.087 3.437 3.413.09.088-.09.088-9.818 9.75-.088.088-.088-.088-9.82-9.75-.087-.088.088-.088 3.437-3.413.088-.087.088.087 3.715 3.688v-.126c0-4.03-1.43-7.45-4.29-10.27-2.86-2.82-6.336-4.23-10.436-4.23a13.3 13.3 0 0 0-3.101.362 13.954 13.954 0 0 0-2.98 1.087l-.08.04-.064-.063-3.681-3.657-.117-.115.143-.08A20.45 20.45 0 0 1 108.812.8a19.148 19.148 0 0 1 5.065-.675z"/><path d="M106.5 57.07c.708 0 1.302.237 1.78.711.48.474.72 1.062.72 1.763v17.315c0 .701-.24 1.289-.72 1.763-.478.474-1.072.711-1.78.711h-40c-.708 0-1.302-.237-1.781-.711-.48-.474-.72-1.062-.72-1.763V59.544c0-.701.24-1.289.72-1.763.479-.474 1.073-.711 1.78-.711zM69 74.386h35V62.018H69zm6.25-9.895c1.042 0 1.927.361 2.656 1.082.729.722 1.094 1.598 1.094 2.629s-.365 1.907-1.094 2.628c-.73.722-1.614 1.082-2.656 1.082s-1.927-.36-2.656-1.082c-.73-.721-1.094-1.597-1.094-2.628 0-1.031.365-1.907 1.094-2.629.729-.721 1.614-1.082 2.656-1.082zm16.37-32.158a25.547 25.547 0 0 0 3.733 4.947H69v12.37h35v-6.366a24.873 24.873 0 0 0 5 1.497v7.342c0 .701-.24 1.289-.72 1.763-.478.474-1.072.711-1.78.711h-40c-.708 0-1.302-.237-1.781-.711-.48-.474-.72-1.062-.72-1.763V34.807c0-.701.24-1.288.72-1.762.479-.474 1.073-.712 1.78-.712zm-16.37 7.42c1.042 0 1.927.362 2.656 1.084.729.721 1.094 1.597 1.094 2.628 0 1.03-.365 1.906-1.094 2.628-.73.721-1.614 1.083-2.656 1.083s-1.927-.362-2.656-1.083c-.73-.722-1.094-1.598-1.094-2.628s.365-1.907 1.094-2.628c.729-.722 1.614-1.083 2.656-1.083zm31.194-7.42c.679.408 1.384.754 2.116 1.04.292.41.44.886.44 1.434v3.833c-3.326-.832-6.282-2.516-8.868-5.057a21.31 21.31 0 0 1-1.174-1.25z"/><path d="M61.625 1.758c.438-.02.886.029 1.304.136.175.05.36.109.536.177.136.059.282.117.419.196.194.107.389.225.564.362.146.117.302.255.438.392.283.274.526.587.72.95 3.699 6.615 6.815 14.309 8.357 22.362H66.5c-2.2 0-4.337.8-6.001 2.446-1.668 1.65-2.5 3.796-2.5 6.028v17.315a8.49 8.49 0 0 0 .84 3.711 8.49 8.49 0 0 0-.84 3.711v12.727c-.482.379-.975.741-1.486 1.093-.058.049-.116.088-.174.137-.438.303-.867.598-1.315.872a6.466 6.466 0 0 1-.311.216c-.273.147-.527.313-.79.479-.272.147-.525.304-.778.431-.438.245-.857.47-1.285.676-.418.225-.857.421-1.285.617-.224.088-.438.196-.662.284a5.671 5.671 0 0 1-.662.275 30.351 30.351 0 0 1-5.316 1.605c-.467.088-.925.167-1.392.245a4.52 4.52 0 0 1-.623.049c-.243 0-.467-.02-.701-.059a4.778 4.778 0 0 1-.34-.078c-.107-.029-.224-.059-.331-.108-.107-.029-.225-.078-.331-.117a2.075 2.075 0 0 1-.45-.245.559.559 0 0 1-.164-.088 2.154 2.154 0 0 1-.39-.275 5.393 5.393 0 0 1-.252-.244c-.117-.088-.224-.216-.331-.333-.107-.117-.195-.255-.283-.373a2.984 2.984 0 0 1-.34-.626 3.48 3.48 0 0 1-.253-.695 90.387 90.387 0 0 1-.584-2.361 39.352 39.352 0 0 1-.4-1.86c-.087-.45-.175-.901-.272-1.371-.175-.96-.332-1.94-.478-2.919a2.032 2.032 0 0 1-.058-.343 1.37 1.37 0 0 1-.03-.284 12.681 12.681 0 0 1-.135-1.037c-.03-.088-.03-.196-.05-.284-.058-.48-.116-.979-.164-1.459a7.393 7.393 0 0 1-.06-.627c-.048-.529-.106-1.048-.136-1.577 0-.118-.02-.226-.02-.333-.01-.137-.028-.274-.028-.402v-.019a54.122 54.122 0 0 1-.107-2.164 77.105 77.105 0 0 1-.05-2.606v-.078c0-.362 0-.754.02-1.116 0-.392.02-.754.03-1.126-.02-.137 0-.274 0-.401.059-1.489.166-2.987.312-4.495.019-.108.029-.216.048-.314.02-.215.048-.421.058-.617.02-.206.049-.402.078-.617.049-.421.108-.842.166-1.243.02-.108.029-.226.048-.334a33.69 33.69 0 0 1 .274-1.713c.019-.147.048-.284.077-.431.107-.597.204-1.186.33-1.773.137-.666.274-1.322.42-1.988.029-.108.049-.215.078-.313.107-.392.194-.794.302-1.205.165-.627.33-1.263.505-1.89.166-.568.33-1.126.506-1.694.088-.304.176-.588.274-.871.087-.304.194-.598.3-.892.148-.44.303-.872.449-1.313.146-.391.302-.792.448-1.204.165-.42.34-.862.506-1.273v-.02c.029-.088.078-.176.117-.274.146-.392.33-.783.496-1.175.244-.568.497-1.126.76-1.684.107-.216.204-.441.31-.666.108-.206.196-.441.313-.666.419-.872.867-1.743 1.344-2.615.224-.44.476-.872.719-1.312.049-.078.079-.138.118-.206.029-.059.058-.108.088-.166.243-.402.495-.843.749-1.244.223-.373.448-.754.69-1.126.225-.343.439-.696.663-1.039.272-.391.525-.783.788-1.174.019-.02.02-.03.029-.05.36-.528.72-1.047 1.09-1.567a83.332 83.332 0 0 1 1.822-2.438c.31-.392.623-.783.944-1.175.302-.372.613-.754.944-1.126a29.3 29.3 0 0 1 1.032-1.205 57.384 57.384 0 0 1 2.103-2.281l.107-.108c.078-.088.146-.147.224-.225a.29.29 0 0 1 .107-.108c.049-.05.078-.088.117-.118.107-.107.214-.206.31-.333a23 23 0 0 1 .975-.98c.506-.498 1.032-.988 1.557-1.487a4.856 4.856 0 0 1 1.364-.863c.146-.049.312-.087.468-.136h.029c.005-.002.049-.02.077-.02a.395.395 0 0 1 .176-.049c.136-.03.272-.049.388-.058.059-.01.137-.03.196-.01zm-55.5 16.944a2.985 2.985 0 0 1 2.034.195c.672.314 1.237.902 1.51 1.744.72 2.271 1.907 5.083 3.874 8.265a52.184 52.184 0 0 0 3.806 5.279c3.018 3.701 7.088 7.697 12.539 11.78-.087.647-.175 1.294-.243 1.94a67.28 67.28 0 0 0-.37 4.642c-.42 8.177.448 16.502 2.6 24.62.194.724.477 1.4.817 2.026v.02C13.115 77.019 3 60.871.819 49.824-.797 41.598-.213 28.779 4.314 20.161a2.88 2.88 0 0 1 1.81-1.459zM33.759.279c.106 0 .204.03.31.05.137.009.255.058.39.087.117.03.243.08.36.138.253.088.497.225.73.372.205.137.419.303.614.499.117.117.224.245.33.362.536.676 1.14 1.44 1.764 2.282.223.304.447.598.67.921.643.872 1.315 1.802 2.006 2.782.253.362.497.734.75 1.116.623.93 1.237 1.89 1.85 2.869-5.676 7.844-9.152 14.347-11.498 23.728a79.485 79.485 0 0 0-.75 3.291c-5.84-4.632-9.784-9.04-12.432-12.947.224-1.087.497-2.164.78-3.26 1.362-5.122 2.813-8.139 5.208-12.682.243-.44.467-.872.7-1.293a48.138 48.138 0 0 1 1.82-3.007 40.027 40.027 0 0 1 2.883-3.927A3.978 3.978 0 0 1 33.31.25c.146 0 .303.02.449.03z"/></g></svg>