<svg xmlns="http://www.w3.org/2000/svg" width="754" height="218" viewBox="0 0 754 218">
    <g fill="none" fill-rule="evenodd">
        <path fill="#2B2B2B" d="M239,41 L239,62 L223,62 L223,83 L239,83 L239,135 C238.957655,150.0626 241.732899,160.391653 248,167 C253.296417,172.556982 261.85342,176 272,176 C281.28013,176 288.912052,174.622793 293,173 L293,152 C289.374593,152.58748 286.599349,152.817014 282,153 C270.641694,152.817014 266.941368,145.930979 267,132 L267,83 L294,83 L294,62 L267,62 L267,33 L239,41 Z M393,63 L382,63 L382,131 C382.031746,135.537678 381.111111,139.87169 380,143 C375.126984,154.242363 363.388889,165.419552 347,165 C325.412698,165.419552 318.047619,148.311609 318,125 L318,63 L307,63 L307,127 C307,167.928717 330.706349,175 345,175 C364.309524,175 376.968254,163.138493 382,153 L383,153 L384,172 L394,172 C393.309524,164.050916 393.079365,155.382892 393,146 L393,63 Z M421,173 L432,173 L432,10 L421,10 L421,173 Z M542,116 L542,110 C542,93.9720559 535.076923,60 499,60 C470.230769,60 449,82.9540918 449,120 C449,152.045908 468.846154,175 501,175 C520.076923,175 531.384615,170.179641 536,168 L533,159 C526.538462,162.37525 518.230769,165.588822 502,166 C479.230769,165.588822 459.846154,151.586826 460,116 L542,116 Z M461,107 C463.079032,90.2619048 473.474195,69 498,69 C524.756996,69 531.225097,91.8452381 531,107 L461,107 Z M629,103 C629.37069,83.8247012 623.086207,60 591,60 C580.724138,60 568.155172,62.749004 558,69 L561,77 C569.551724,71.6832669 579.793103,69.1633466 590,69 C616.103448,68.9342629 618.198276,90.6972112 618,101 L618,104 C572.577586,103.984064 550,119.332669 550,145 C550,159.422311 560.241379,175 583,175 C600.741379,175 613.077586,165.149402 619,157 L619,157 L621,172 L631,172 C629.603448,164.003984 629.37069,155.069721 629,146 L629,103 Z M618,138 C618,139.353579 617.769547,141.858798 617,144 C613.160494,154.840388 602.559671,166 584,166 C572.600823,166 562,158.939837 562,143 C562,117.034354 593.802469,113.390399 618,114 L618,138 Z M654,218 L665,218 L665,155 L666,155 C673.2,168.008708 687.363218,175.117562 703,175 C730.317241,175.117562 754,154.937591 754,116 C754,83.3904209 734.728736,60 706,60 C686.666667,60 672.967816,68.9433962 665,83 L664,83 L664,63 L653,63 C653.696552,73.0711176 653.928736,83.8490566 654,98 L654,218 Z M665,108 C665,104.627962 665.931343,101.180095 667,98 C671.519403,80.0331754 687.352239,69 704,69 C729.029851,69 743,91.2962085 743,116 C743,145.542654 728.331343,166 703,166 C685.489552,166 670.58806,154.966825 666,138 C665.232836,135.199052 665,132.2109 665,129 L665,108 Z"/>
        <path fill="#F79514" d="M100.5926,85.5643774 C96.464819,89.3344969 82.7936025,101.30814 82.7988399,101.303477 C77.0851685,106.39001 73.3361886,110.018565 70.7116153,113.161035 C70.5583296,113.084756 48.4699907,101.210124 46.6825379,100.074385 C48.2489194,96.369592 50.3515008,91.4705584 51.8552749,88.2481856 C54.5527037,82.4679814 59.6427547,73.6012715 59.6427547,73.6012715 C59.6427547,73.6012715 55.0368247,66.6650267 49.2566201,58.9580866 C43.4764155,51.2511464 35.3841288,44.3149017 27.6771893,44.3149017 C19.9702499,44.3149017 13.3205778,62.0445916 13.3205778,62.0445916 C13.3205778,62.0445916 12.5498832,73.9903473 22.5689048,86.7067974 C31.9325474,98.5914204 42.9791002,104.417566 44.3842205,105.128929 C46.1603098,106.172298 66.4830519,117.078346 67.4563353,117.565674 C58.0971647,131.780199 55.6784424,150.499908 59.6427528,166.357149 C60.3824117,169.315785 61.6371359,172.558746 63.3399014,176.051657 C64.9202281,179.293407 66.8595283,182.695318 69.0790619,186.194991 C71.25863,189.631648 73.5896642,192.979145 75.920835,196.108167 C76.6111368,197.034727 77.2602692,197.886453 77.8567422,198.653389 C65.2087508,197.486046 53.8609164,191.165006 46.4604174,186.511662 C-4.40538346,154.527863 -11.2428549,96.3367441 14.9607393,49.7097606 C32.0206985,19.3530687 61.8742961,70.136878 61.8742961,70.136878 C61.8742961,70.136878 74.2054013,50.0988354 100.023648,25.4366293 C102.221605,28.781346 103.877118,32.7582217 106.292055,37.6289163 C117.077687,6.55089851 121.219462,0.207685546 128.153977,0.00372921317 C147.30932,-0.55966319 178.249078,62.8152851 162.835199,120.617336 C152.496531,159.387347 110.418649,195.889503 84.9257519,198.672623 C82.7988407,196.108163 81.0359989,193.944039 80.2470492,192.885069 C77.991666,189.857773 75.7361464,186.61872 73.6349308,183.305606 C71.5160581,179.964651 69.6737729,176.732924 68.1892273,173.68765 C66.6389364,170.507513 65.5150112,167.602615 64.8765334,165.048704 C60.9828437,149.473945 63.8619655,130.759652 74.0254055,117.645536 C76.4126242,114.565254 80.1824523,110.855604 86.3860261,105.332941 C86.3437384,105.370588 100.053597,93.3631014 104.230859,89.5477884 C122.616367,72.7553382 133.413839,59.3190005 137.302399,45.4312854 C142.650714,28.8796098 142.609361,15.7992262 140.969199,13.487144 C140.969199,13.487144 133.548833,3.47185195 128.539322,3.85719893 C123.529812,4.2425459 119.004422,14.2578379 118.233728,16.1845728 C117.463034,18.1113076 113.994911,26.974288 108.600054,41.2321259 C109.448787,43.1417753 112.225383,50.1362804 115.052178,57.0350836 C116.365341,60.2398623 117.663645,63.905379 118.762087,67.0435998 C113.934781,72.7967503 107.892554,78.8969463 100.5926,85.5643774 Z"/>
    </g>
</svg>
