<svg xmlns="http://www.w3.org/2000/svg" width="610" height="168" viewBox="0 0 610 168">
    <defs>
        <radialGradient id="logo-enalean-colors-text-baseline-inverse-a" r="42.32%" fx="50%" fy="50%" gradientTransform="matrix(.16758 0 0 .16443 .416 .418)">
            <stop offset="0%"/>
            <stop offset="100%" stop-opacity="0"/>
        </radialGradient>
        <radialGradient id="logo-enalean-colors-text-baseline-inverse-b" cx="74.111%" cy="36.458%" r="68.751%" fx="74.111%" fy="36.458%" gradientTransform="scale(1 .55517) rotate(-68.437 .956 .51)">
            <stop offset="0%" stop-color="#DBDCDD"/>
            <stop offset="100%" stop-color="#B9BABC"/>
            <stop offset="100%" stop-color="#B6B7B9"/>
        </radialGradient>
        <linearGradient id="logo-enalean-colors-text-baseline-inverse-c" x1="-.002%" x2="99.998%" y1="49.998%" y2="49.998%">
            <stop offset="0%" stop-color="#FEE453"/>
            <stop offset="11.48%" stop-color="#FCCF3E"/>
            <stop offset="30.67%" stop-color="#F6A719"/>
            <stop offset="42.24%" stop-color="#F4A218"/>
            <stop offset="57.64%" stop-color="#F09616"/>
            <stop offset="75.21%" stop-color="#E97D14"/>
            <stop offset="93.823%" stop-color="#E26714"/>
            <stop offset="100%" stop-color="#DF5B14"/>
        </linearGradient>
    </defs>
    <g fill="none" fill-rule="evenodd" transform="translate(-11)">
        <path fill="#FFF" d="M222.155163,82.2253023 C222.479256,80.4427907 222.803349,77.5259535 222.803349,73.7988837 C222.803349,56.459907 214.37693,35.3938605 188.773581,35.3938605 C163.494326,35.3938605 150.206512,55.9737674 150.206512,77.8500465 C150.206512,101.994977 165.276837,117.713488 190.880186,117.713488 C202.223442,117.713488 211.62214,115.606884 218.428093,112.690047 L215.511256,99.0781395 C209.353488,101.184744 202.871628,102.643163 193.634977,102.643163 C180.833302,102.643163 169.81414,96.4853953 169.328,82.2253023 L222.155163,82.2253023 Z M169.328,68.2893023 C170.138233,60.1869767 175.323721,49.0057674 187.639256,49.0057674 C200.92707,49.0057674 204.168,60.9972093 204.005953,68.2893023 L169.328,68.2893023 Z M236.439442,116.093023 L244.217674,116.093023 L244.217674,67.8031628 C244.217674,65.3724651 244.703814,62.7797209 245.189953,60.9972093 C248.268837,50.7882791 257.667535,43.0100465 268.524651,43.0100465 C284.567256,43.0100465 290.076837,55.8117209 290.076837,70.071814 L290.076837,116.093023 L297.85507,116.093023 L297.85507,69.4236279 C297.85507,40.2552558 278.085395,36.528186 270.631256,36.528186 C257.991628,36.528186 248.106791,43.496186 243.893581,52.2466977 L243.569488,52.2466977 L243.083349,38.3106977 L235.791256,38.3106977 C236.277395,44.4684651 236.439442,49.816 236.439442,56.9460465 L236.439442,116.093023 Z M366.91107,67.1549767 C366.91107,53.3810233 362.535814,36.528186 340.011349,36.528186 C333.043349,36.528186 324.292837,38.4727442 317.162791,43.172093 L319.593488,48.8437209 C325.265116,44.7925581 332.395163,43.0100465 339.201116,43.0100465 C357.674419,42.848 359.132837,58.2424186 359.132837,65.8586047 L359.132837,67.9652093 C327.371721,67.6411163 311.653209,78.4982326 311.653209,96.4853953 C311.653209,106.856372 318.783256,117.875535 334.501767,117.875535 C346.979349,117.875535 355.567814,110.907535 359.45693,104.911814 L359.781023,104.911814 L360.915349,116.093023 L368.045395,116.093023 C367.073116,110.097302 366.91107,103.777488 366.91107,97.6197209 L366.91107,67.1549767 Z M359.132837,91.1378605 C359.132837,92.4342326 358.970791,94.2167442 358.322605,95.8372093 C355.72986,103.453395 348.275721,111.393674 335.312,111.393674 C327.209674,111.393674 319.755535,106.370233 319.755535,95.1890233 C319.755535,76.5536744 342.117953,73.9609302 359.132837,74.4470698 L359.132837,91.1378605 Z M387.19107,116.093023 L394.969302,116.093023 L394.969302,0.877953488 L387.19107,0.877953488 L387.19107,116.093023 Z M475.206512,76.3916279 C475.530605,74.9332093 475.530605,73.7988837 475.530605,71.6922791 C475.530605,60.5110698 470.669209,36.528186 445.227907,36.528186 C425.13414,36.528186 410.22586,52.7328372 410.22586,78.6602791 C410.22586,101.508837 424.16186,117.713488 446.524279,117.713488 C460.136186,117.713488 468.076465,114.310512 470.993302,112.690047 L469.048744,106.694326 C464.673488,108.80093 458.839814,111.069581 447.496558,111.069581 C431.453953,111.069581 417.842047,101.184744 417.842047,76.3916279 L475.206512,76.3916279 Z M418.328186,70.2338605 C419.786605,58.2424186 427.078698,43.0100465 444.255628,43.0100465 C463.053023,43.0100465 467.590326,59.3767442 467.428279,70.2338605 L418.328186,70.2338605 Z M538.914977,67.1549767 C538.914977,53.3810233 534.539721,36.528186 512.015256,36.528186 C505.047256,36.528186 496.296744,38.4727442 489.166698,43.172093 L491.597395,48.8437209 C497.269023,44.7925581 504.39907,43.0100465 511.205023,43.0100465 C529.678326,42.848 531.136744,58.2424186 531.136744,65.8586047 L531.136744,67.9652093 C499.375628,67.6411163 483.657116,78.4982326 483.657116,96.4853953 C483.657116,106.856372 490.787163,117.875535 506.505674,117.875535 C518.983256,117.875535 527.571721,110.907535 531.460837,104.911814 L531.78493,104.911814 L532.919256,116.093023 L540.049302,116.093023 C539.077023,110.097302 538.914977,103.777488 538.914977,97.6197209 L538.914977,67.1549767 Z M531.136744,91.1378605 C531.136744,92.4342326 530.974698,94.2167442 530.326512,95.8372093 C527.733767,103.453395 520.279628,111.393674 507.315907,111.393674 C499.213581,111.393674 491.759442,106.370233 491.759442,95.1890233 C491.759442,76.5536744 514.12186,73.9609302 531.136744,74.4470698 L531.136744,91.1378605 Z M559.194977,116.093023 L566.973209,116.093023 L566.973209,67.8031628 C566.973209,65.3724651 567.459349,62.7797209 567.945488,60.9972093 C571.024372,50.7882791 580.42307,43.0100465 591.280186,43.0100465 C607.322791,43.0100465 612.832372,55.8117209 612.832372,70.071814 L612.832372,116.093023 L620.610605,116.093023 L620.610605,69.4236279 C620.610605,40.2552558 600.84093,36.528186 593.386791,36.528186 C580.747163,36.528186 570.862326,43.496186 566.649116,52.2466977 L566.325023,52.2466977 L565.838884,38.3106977 L558.546791,38.3106977 C559.03293,44.4684651 559.194977,49.816 559.194977,56.9460465 L559.194977,116.093023 Z"/>
        <path fill="#C0C0C0" d="M157.585674,161.408 C158.543442,161.940093 159.953488,162.312558 161.523163,162.312558 C164.955163,162.312558 166.790884,160.60986 166.790884,158.242047 C166.764279,156.326512 165.700093,155.129302 163.332279,154.304558 C161.682791,153.692651 161.070884,153.320186 161.070884,152.495442 C161.070884,151.697302 161.709395,151.112 162.88,151.112 C164.024,151.112 165.088186,151.537674 165.620279,151.85693 L166.285395,149.56893 C165.51386,149.143256 164.263442,148.797395 162.826791,148.797395 C159.820465,148.797395 157.931535,150.553302 157.931535,152.841302 C157.931535,154.384372 158.969116,155.767814 161.496558,156.619163 C163.092837,157.204465 163.62493,157.63014 163.62493,158.508093 C163.62493,159.359442 162.986419,159.971349 161.549767,159.971349 C160.379163,159.971349 158.969116,159.46586 158.250791,159.013581 L157.585674,161.408 Z M180.920372,148.797395 C177.009488,148.797395 174.216,151.404651 174.216,155.661395 C174.216,159.838326 177.062698,162.339163 180.707535,162.339163 C184.006512,162.339163 187.358698,160.210791 187.358698,155.448558 C187.358698,151.51107 184.778046,148.797395 180.920372,148.797395 Z M180.840558,151.165209 C183.075349,151.165209 183.979907,153.506419 183.979907,155.528372 C183.979907,158.162233 182.676279,159.971349 180.813953,159.971349 C178.845209,159.971349 177.594791,158.082419 177.594791,155.581581 C177.594791,153.426605 178.525953,151.165209 180.840558,151.165209 Z M199.253395,162.046512 L199.253395,151.537674 L202.046883,151.537674 L202.046883,149.090047 L199.22679,149.090047 L199.22679,148.42493 C199.22679,146.828651 199.758883,145.471814 201.381767,145.471814 C201.993674,145.471814 202.419349,145.578233 202.791814,145.711256 L203.004651,143.183814 C202.499163,143.024186 201.807442,142.864558 200.929488,142.864558 C199.785488,142.864558 198.508465,143.210419 197.550697,144.114977 C196.433302,145.179163 195.981023,146.855256 195.981023,148.531349 L195.981023,149.090047 L194.225116,149.090047 L194.225116,151.537674 L195.981023,151.537674 L195.981023,162.046512 L199.253395,162.046512 Z M210.536186,146.669023 L210.536186,149.090047 L208.700465,149.090047 L208.700465,151.537674 L210.536186,151.537674 L210.536186,157.63014 C210.536186,159.332837 210.855442,160.530047 211.573767,161.274977 C212.185674,161.940093 213.170046,162.339163 214.39386,162.339163 C215.404837,162.339163 216.28279,162.179535 216.761674,161.993302 L216.708465,159.51907 C216.336,159.625488 216.016744,159.652093 215.431442,159.652093 C214.181023,159.652093 213.755348,158.853953 213.755348,157.257674 L213.755348,151.537674 L216.868093,151.537674 L216.868093,149.090047 L213.755348,149.090047 L213.755348,145.764465 L210.536186,146.669023 Z M223.707907,149.090047 L227.538976,162.046512 L230.598511,162.046512 L232.248,156.778791 C232.620465,155.501767 232.93972,154.224744 233.232372,152.628465 L233.285581,152.628465 C233.578232,154.19814 233.870883,155.421953 234.269953,156.778791 L235.813023,162.046512 L238.845953,162.046512 L242.916465,149.090047 L239.697302,149.090047 L238.260651,154.836651 C237.91479,156.353116 237.595534,157.763163 237.409302,159.173209 L237.356093,159.173209 C237.063441,157.763163 236.717581,156.353116 236.318511,154.836651 L234.695627,149.090047 L232.035162,149.090047 L230.332465,154.996279 C229.986604,156.326512 229.56093,157.763163 229.294883,159.173209 L229.241674,159.173209 C229.002232,157.763163 228.709581,156.353116 228.390325,154.969674 L227.060093,149.090047 L223.707907,149.090047 Z M260.477953,154.277953 C260.477953,151.431256 259.280744,148.797395 255.130418,148.797395 C253.08186,148.797395 251.405767,149.356093 250.447999,149.941395 L251.086511,152.069767 C251.964465,151.51107 253.294697,151.112 254.57172,151.112 C256.85972,151.112 257.205581,152.522047 257.205581,153.373395 L257.205581,153.586233 C252.416744,153.559628 249.516837,155.235721 249.516837,158.481488 C249.516837,160.450233 250.980092,162.339163 253.587348,162.339163 C255.290046,162.339163 256.646883,161.620837 257.418418,160.60986 L257.498232,160.60986 L257.737674,162.046512 L260.69079,162.046512 C260.531162,161.248372 260.477953,160.104372 260.477953,158.933767 L260.477953,154.277953 Z M257.285395,157.497116 C257.285395,157.736558 257.285395,157.976 257.205581,158.215442 C256.886325,159.146605 255.955162,159.997953 254.62493,159.997953 C253.587348,159.997953 252.762604,159.412651 252.762604,158.135628 C252.762604,156.166884 254.97079,155.688 257.285395,155.714605 L257.285395,157.497116 Z M269.499348,162.046512 L272.77172,162.046512 L272.77172,155.315535 C272.77172,154.969674 272.798325,154.623814 272.851534,154.331163 C273.144185,152.841302 274.234976,151.85693 275.778046,151.85693 C276.177116,151.85693 276.469767,151.883535 276.762418,151.936744 L276.762418,148.877209 C276.496371,148.824 276.310139,148.797395 275.990883,148.797395 C274.580837,148.797395 273.064371,149.728558 272.42586,151.537674 L272.346046,151.537674 L272.213023,149.090047 L269.39293,149.090047 C269.472743,150.234047 269.499348,151.51107 269.499348,153.266977 L269.499348,162.046512 Z M295.281674,156.48614 C295.334883,156.193488 295.388092,155.714605 295.388092,155.102698 C295.388092,152.256 294.00465,148.797395 289.801115,148.797395 C285.65079,148.797395 283.469208,152.176186 283.469208,155.767814 C283.469208,159.731907 285.943441,162.312558 290.146976,162.312558 C292.009302,162.312558 293.552371,161.966698 294.669767,161.487814 L294.190883,159.253023 C293.179906,159.598884 292.11572,159.838326 290.599255,159.838326 C288.497488,159.838326 286.688371,158.827349 286.608557,156.48614 L295.281674,156.48614 Z M286.608557,154.19814 C286.741581,152.867907 287.592929,151.032186 289.614883,151.032186 C291.796464,151.032186 292.328557,153.00093 292.301953,154.19814 L286.608557,154.19814 Z M325.509394,156.03386 C325.562604,155.767814 325.589208,155.421953 325.589208,154.94307 C325.589208,152.575256 324.498418,148.903814 320.268278,148.903814 C316.517022,148.903814 314.229022,151.936744 314.229022,155.821023 C314.229022,159.705302 316.596836,162.339163 320.560929,162.339163 C322.609487,162.339163 324.046138,161.886884 324.870883,161.514419 L324.445208,159.838326 C323.593859,160.210791 322.556278,160.503442 320.880185,160.503442 C318.512371,160.503442 316.517022,159.199814 316.463813,156.03386 L325.509394,156.03386 Z M316.490418,154.357767 C316.67665,152.734884 317.687627,150.579907 320.082045,150.579907 C322.715906,150.579907 323.354418,152.894512 323.327813,154.357767 L316.490418,154.357767 Z M334.051906,162.046512 L336.393115,162.046512 L336.393115,154.304558 C336.393115,153.905488 336.446324,153.506419 336.552743,153.213767 C336.978417,151.91014 338.175627,150.819349 339.692092,150.819349 C341.900278,150.819349 342.671813,152.548651 342.671813,154.623814 L342.671813,162.046512 L345.013022,162.046512 L345.013022,154.384372 C345.013022,149.968 342.246138,148.903814 340.463627,148.903814 C338.335255,148.903814 336.845394,150.101023 336.206883,151.298233 L336.153673,151.298233 L336.02065,149.16986 L333.945487,149.16986 C334.025301,150.234047 334.051906,151.298233 334.051906,152.65507 L334.051906,162.046512 Z M365.394603,152.681674 C365.394603,151.138605 365.421208,150.074419 365.501022,149.16986 L363.425859,149.16986 L363.346045,151.112 L363.292836,151.112 C362.707534,150.047814 361.510324,148.903814 359.275534,148.903814 C356.295813,148.903814 353.449115,151.351442 353.449115,155.714605 C353.449115,159.279628 355.737115,161.993302 358.929673,161.993302 C360.925022,161.993302 362.335068,161.035535 363.026789,159.838326 L363.079999,159.838326 L363.079999,161.248372 C363.079999,164.520744 361.324092,165.771163 358.929673,165.771163 C357.333394,165.771163 356.003162,165.292279 355.151813,164.733581 L354.56651,166.542698 C355.604092,167.234419 357.306789,167.606884 358.849859,167.606884 C360.472743,167.606884 362.281859,167.207814 363.558882,166.063814 C364.782696,164.919814 365.394603,163.137302 365.394603,160.157581 L365.394603,152.681674 Z M363.053394,156.565953 C363.053394,156.965023 363.000185,157.417302 362.867162,157.816372 C362.388278,159.306233 361.08465,160.210791 359.621394,160.210791 C357.120557,160.210791 355.816929,158.109023 355.816929,155.581581 C355.816929,152.60186 357.413208,150.71293 359.647999,150.71293 C361.377301,150.71293 362.494696,151.830326 362.920371,153.213767 C363.026789,153.506419 363.053394,153.852279 363.053394,154.251349 L363.053394,156.565953 Z M376.99665,162.046512 L376.99665,149.16986 L374.65544,149.16986 L374.65544,162.046512 L376.99665,162.046512 Z M375.826045,144.088372 C374.948092,144.088372 374.362789,144.753488 374.362789,145.551628 C374.362789,146.349767 374.921487,146.988279 375.772836,146.988279 C376.703999,146.988279 377.262696,146.349767 377.262696,145.551628 C377.262696,144.726884 376.677394,144.088372 375.826045,144.088372 Z M386.443719,162.046512 L388.784929,162.046512 L388.784929,154.304558 C388.784929,153.905488 388.838138,153.506419 388.944557,153.213767 C389.370231,151.91014 390.56744,150.819349 392.083905,150.819349 C394.292092,150.819349 395.063626,152.548651 395.063626,154.623814 L395.063626,162.046512 L397.404836,162.046512 L397.404836,154.384372 C397.404836,149.968 394.637952,148.903814 392.85544,148.903814 C390.727068,148.903814 389.237208,150.101023 388.598696,151.298233 L388.545487,151.298233 L388.412464,149.16986 L386.337301,149.16986 C386.417115,150.234047 386.443719,151.298233 386.443719,152.65507 L386.443719,162.046512 Z M417.121301,156.03386 C417.17451,155.767814 417.201115,155.421953 417.201115,154.94307 C417.201115,152.575256 416.110324,148.903814 411.880184,148.903814 C408.128929,148.903814 405.840929,151.936744 405.840929,155.821023 C405.840929,159.705302 408.208743,162.339163 412.172836,162.339163 C414.221394,162.339163 415.658045,161.886884 416.482789,161.514419 L416.057115,159.838326 C415.205766,160.210791 414.168184,160.503442 412.492091,160.503442 C410.124277,160.503442 408.128929,159.199814 408.075719,156.03386 L417.121301,156.03386 Z M408.102324,154.357767 C408.288557,152.734884 409.299533,150.579907 411.693952,150.579907 C414.327812,150.579907 414.966324,152.894512 414.939719,154.357767 L408.102324,154.357767 Z M436.013022,156.03386 C436.066231,155.767814 436.092835,155.421953 436.092835,154.94307 C436.092835,152.575256 435.002045,148.903814 430.771905,148.903814 C427.020649,148.903814 424.732649,151.936744 424.732649,155.821023 C424.732649,159.705302 427.100463,162.339163 431.064556,162.339163 C433.113115,162.339163 434.549766,161.886884 435.37451,161.514419 L434.948835,159.838326 C434.097487,160.210791 433.059905,160.503442 431.383812,160.503442 C429.015998,160.503442 427.020649,159.199814 426.96744,156.03386 L436.013022,156.03386 Z M426.994045,154.357767 C427.180277,152.734884 428.191254,150.579907 430.585673,150.579907 C433.219533,150.579907 433.858045,152.894512 433.83144,154.357767 L426.994045,154.357767 Z M444.555533,162.046512 L446.896742,162.046512 L446.896742,155.182512 C446.896742,154.810047 446.923347,154.410977 446.976556,154.091721 C447.295812,152.335814 448.466417,151.112 450.115905,151.112 C450.435161,151.112 450.674603,151.112 450.914045,151.165209 L450.914045,148.957023 C450.701207,148.930419 450.514975,148.903814 450.275533,148.903814 C448.705859,148.903814 447.269207,149.994605 446.683905,151.723907 L446.604091,151.723907 L446.497673,149.16986 L444.449114,149.16986 C444.528928,150.36707 444.555533,151.670698 444.555533,153.187163 L444.555533,162.046512 Z M461.265672,162.046512 L461.265672,149.16986 L458.924463,149.16986 L458.924463,162.046512 L461.265672,162.046512 Z M460.095068,144.088372 C459.217114,144.088372 458.631812,144.753488 458.631812,145.551628 C458.631812,146.349767 459.19051,146.988279 460.041859,146.988279 C460.973021,146.988279 461.531719,146.349767 461.531719,145.551628 C461.531719,144.726884 460.946417,144.088372 460.095068,144.088372 Z M470.712742,162.046512 L473.053951,162.046512 L473.053951,154.304558 C473.053951,153.905488 473.107161,153.506419 473.213579,153.213767 C473.639254,151.91014 474.836463,150.819349 476.352928,150.819349 C478.561114,150.819349 479.332649,152.548651 479.332649,154.623814 L479.332649,162.046512 L481.673858,162.046512 L481.673858,154.384372 C481.673858,149.968 478.906975,148.903814 477.124463,148.903814 C474.996091,148.903814 473.50623,150.101023 472.867719,151.298233 L472.81451,151.298233 L472.681486,149.16986 L470.606324,149.16986 C470.686137,150.234047 470.712742,151.298233 470.712742,152.65507 L470.712742,162.046512 Z M502.05544,152.681674 C502.05544,151.138605 502.082044,150.074419 502.161858,149.16986 L500.086695,149.16986 L500.006882,151.112 L499.953672,151.112 C499.36837,150.047814 498.171161,148.903814 495.93637,148.903814 C492.956649,148.903814 490.109951,151.351442 490.109951,155.714605 C490.109951,159.279628 492.397951,161.993302 495.590509,161.993302 C497.585858,161.993302 498.995905,161.035535 499.687626,159.838326 L499.740835,159.838326 L499.740835,161.248372 C499.740835,164.520744 497.984928,165.771163 495.590509,165.771163 C493.99423,165.771163 492.663998,165.292279 491.812649,164.733581 L491.227347,166.542698 C492.264928,167.234419 493.967626,167.606884 495.510695,167.606884 C497.133579,167.606884 498.942695,167.207814 500.219719,166.063814 C501.443533,164.919814 502.05544,163.137302 502.05544,160.157581 L502.05544,152.681674 Z M499.71423,156.565953 C499.71423,156.965023 499.661021,157.417302 499.527998,157.816372 C499.049114,159.306233 497.745486,160.210791 496.28223,160.210791 C493.781393,160.210791 492.477765,158.109023 492.477765,155.581581 C492.477765,152.60186 494.074044,150.71293 496.308835,150.71293 C498.038137,150.71293 499.155533,151.830326 499.581207,153.213767 C499.687626,153.506419 499.71423,153.852279 499.71423,154.251349 L499.71423,156.565953 Z M525.020091,162.046512 L525.020091,149.16986 L522.678881,149.16986 L522.678881,162.046512 L525.020091,162.046512 Z M523.849486,144.088372 C522.971532,144.088372 522.38623,144.753488 522.38623,145.551628 C522.38623,146.349767 522.944928,146.988279 523.796277,146.988279 C524.727439,146.988279 525.286137,146.349767 525.286137,145.551628 C525.286137,144.726884 524.700835,144.088372 523.849486,144.088372 Z M533.589207,161.434605 C534.493765,161.966698 535.797393,162.339163 537.207439,162.339163 C540.213765,162.339163 541.996277,160.742884 541.996277,158.454884 C541.996277,156.539349 540.825672,155.421953 538.617486,154.597209 C536.941393,153.932093 536.196463,153.453209 536.196463,152.389023 C536.196463,151.431256 536.941393,150.633116 538.324835,150.633116 C539.522044,150.633116 540.453207,151.085395 540.958695,151.404651 L541.517393,149.701953 C540.825672,149.249674 539.681672,148.903814 538.378044,148.903814 C535.637765,148.903814 533.935067,150.606512 533.935067,152.681674 C533.935067,154.224744 535.025858,155.475163 537.367067,156.326512 C539.069765,156.965023 539.734881,157.550326 539.734881,158.667721 C539.734881,159.758512 538.936742,160.583256 537.260649,160.583256 C536.090044,160.583256 534.86623,160.104372 534.147904,159.678698 L533.589207,161.434605 Z M561.768369,162.046512 L564.109579,162.046512 L564.109579,154.304558 C564.109579,153.905488 564.162788,153.506419 564.269207,153.213767 C564.694881,151.91014 565.89209,150.819349 567.408555,150.819349 C569.616741,150.819349 570.388276,152.548651 570.388276,154.623814 L570.388276,162.046512 L572.729486,162.046512 L572.729486,154.384372 C572.729486,149.968 569.962602,148.903814 568.18009,148.903814 C566.051718,148.903814 564.561858,150.101023 563.923346,151.298233 L563.870137,151.298233 L563.737114,149.16986 L561.661951,149.16986 C561.741765,150.234047 561.768369,151.298233 561.768369,152.65507 L561.768369,162.046512 Z M587.550695,148.903814 C584.012276,148.903814 581.165579,151.431256 581.165579,155.714605 C581.165579,159.785116 583.879253,162.339163 587.337858,162.339163 C590.423997,162.339163 593.749579,160.264 593.749579,155.501767 C593.749579,151.590884 591.248741,148.903814 587.550695,148.903814 Z M587.497485,150.659721 C590.264369,150.659721 591.35516,153.4 591.35516,155.581581 C591.35516,158.481488 589.679067,160.583256 587.444276,160.583256 C585.156276,160.583256 583.559997,158.454884 583.559997,155.634791 C583.559997,153.213767 584.757206,150.659721 587.497485,150.659721 Z M600.80223,149.16986 L604.686509,162.046512 L606.814881,162.046512 L608.890044,155.927442 C609.342323,154.544 609.741392,153.213767 610.060648,151.670698 L610.113857,151.670698 C610.433113,153.187163 610.805578,154.464186 611.257857,155.900837 L613.226602,162.046512 L615.354974,162.046512 L619.505299,149.16986 L617.190695,149.16986 L615.354974,155.634791 C614.929299,157.151256 614.583439,158.508093 614.370602,159.811721 L614.290788,159.811721 C613.998137,158.508093 613.625671,157.151256 613.146788,155.608186 L611.151439,149.16986 L609.182695,149.16986 L607.080927,155.741209 C606.655253,157.124651 606.229578,158.508093 605.936927,159.811721 L605.857113,159.811721 C605.617671,158.481488 605.271811,157.151256 604.92595,155.714605 L603.196648,149.16986 L600.80223,149.16986 Z"/>
        <g transform="translate(0 2.419)">
            <path fill="url(#logo-enalean-colors-text-baseline-inverse-a)" d="M69.6945458,166.563146 C31.2832529,166.563146 0.146637743,161.344799 0.146637743,154.904855 C0.146637743,148.471473 31.2848722,143.253126 69.6945458,143.253126 C108.104236,143.253126 139.248981,148.473118 139.248981,154.904855 C139.248981,161.344783 108.105855,166.563146 69.6945458,166.563146 Z" opacity=".304"/>
            <g transform="translate(15)">
                <path fill="url(#logo-enalean-colors-text-baseline-inverse-b)" d="M87.8605787,38.4974188 C87.544799,43.3760791 83.3543753,47.0813137 78.4966676,46.7693069 C73.6416916,46.449044 69.964776,42.2385561 70.2723279,37.3571492 C70.588124,32.4784889 74.7840438,28.7732543 79.6252795,29.0824816 C84.4884833,29.394472 88.1818709,33.6105023 87.8605787,38.4974188 C87.8605787,38.4974188 88.1818709,33.6105023 87.8605787,38.4974188 L87.8605787,38.4974188 Z M87.012071,75.2846964 C86.138831,88.9322091 74.4023437,99.3024419 60.8040566,98.4272243 C47.2222414,97.5547533 36.9164382,85.7626045 37.7896783,72.0874945 C38.662902,58.4289133 50.3938932,48.053171 63.9784564,48.933931 C77.5794916,49.8257102 87.8935389,61.60957 87.012071,75.2846964 C87.012071,75.2846964 87.8935389,61.60957 87.012071,75.2846964 L87.012071,75.2846964 Z M78.4032996,18.2981092 C78.2220595,21.2799605 75.6682596,23.5329188 72.7025639,23.3451654 C69.7368519,23.1463764 67.4933683,20.5842073 67.6883323,17.6023396 C67.875052,14.6315239 70.4316,12.3675136 73.3918159,12.5663026 C76.3575116,12.7485299 78.5955154,15.3190046 78.4032996,18.2981092 C78.4032996,18.2981092 78.5955154,15.3190046 78.4032996,18.2981092 L78.4032996,18.2981092 Z M91.8697834,13.2538251 C91.8697834,15.4907696 90.0661978,17.3041801 87.841373,17.3041801 C85.6165206,17.3041801 83.8129626,15.4907696 83.8129626,13.2538251 C83.8129626,11.0168806 85.6165206,9.20347008 87.841373,9.20347008 C90.0661978,9.20347008 91.8697834,11.0168806 91.8697834,13.2538251 C91.8697834,13.2538251 91.8697834,11.0168806 91.8697834,13.2538251 Z M80.4710555,3.22591747 C80.3969565,4.39658017 79.3946074,5.28008677 78.2330517,5.21106076 C77.0714796,5.12537444 76.1900118,4.12047613 76.2696396,2.95257645 C76.3411215,1.79020279 77.3488194,0.906696186 78.5021474,0.978501656 C79.6664675,1.04741254 80.5451873,2.05527122 80.4710555,3.22591747 C80.4710555,3.22591747 80.5451873,2.05527122 80.4710555,3.22591747 L80.4710555,3.22591747 Z"/>
                <path fill="url(#logo-enalean-colors-text-baseline-inverse-c)" d="M92.5205744,81.1490126 C89.3571668,87.7974492 68.8718723,109.537402 51.3961932,93.4050024 C35.9278621,79.119694 52.5824813,65.3313663 52.5824813,65.3313663 C52.5824813,65.3313663 67.5208161,53.7159352 66.8453043,32.1416479 C66.6695604,26.0812893 65.0796042,21.4207755 62.8965286,17.8618655 C59.6040446,17.2047616 56.1934929,16.8485795 52.6950693,16.8485795 C23.8865709,16.8485795 0.534428548,40.338984 0.534428548,69.3071789 C0.534428548,98.2725942 23.8865709,121.7492 52.6950693,121.7492 C81.5062993,121.7492 104.86119,98.2725942 104.86119,69.3071789 C104.857918,56.1759715 100.050166,44.1822707 92.1278986,34.9771745 C103.499174,58.6001051 95.3462344,75.2129074 92.5205744,81.1490126 Z"/>
            </g>
        </g>
    </g>
</svg>
